<?xml version="1.0" standalone="no"?><!DOCTYPE svg PUBLIC "-//W3C//DTD SVG 1.1//EN" "http://www.w3.org/Graphics/SVG/1.1/DTD/svg11.dtd"><svg t="1786349732234" class="icon" viewBox="0 0 1024 1024" version="1.1" xmlns="http://www.w3.org/2000/svg" p-id="52597" xmlns:xlink="http://www.w3.org/1999/xlink" width="200" height="200"><path d="M97.28 486.4h816.64v51.2H97.28z" fill="#49E9FF" p-id="52598"></path><path d="M486.4 112.64h51.2v816.64h-51.2z" fill="#49E9FF" p-id="52599"></path><path d="M514.56 944.64l-20.48-46.08c120.32-56.32 202.24-209.92 202.24-386.56S614.4 181.76 494.08 125.44l20.48-46.08c138.24 64 230.4 238.08 230.4 432.64 0 194.56-92.16 368.64-230.4 432.64z" fill="#0F41F5" p-id="52600"></path><path d="M501.76 944.64c-138.24-64-230.4-238.08-230.4-432.64 0-194.56 92.16-368.64 230.4-432.64l20.48 46.08c-120.32 56.32-202.24 209.92-202.24 386.56s81.92 330.24 202.24 386.56l-20.48 46.08z" fill="#0F41F5" p-id="52601"></path><path d="M512 394.24c-135.68 0-263.68-35.84-350.72-99.84l30.72-40.96c79.36 56.32 194.56 89.6 320 89.6 122.88 0 238.08-30.72 317.44-87.04l30.72 40.96c-89.6 61.44-215.04 97.28-348.16 97.28zM832 770.56c-79.36-56.32-194.56-89.6-320-89.6s-243.2 33.28-320 89.6l-30.72-40.96c87.04-64 215.04-99.84 350.72-99.84s263.68 35.84 350.72 99.84l-30.72 40.96z" fill="#0F41F5" p-id="52602"></path><path d="M512 944.64c-238.08 0-432.64-194.56-432.64-432.64S273.92 79.36 512 79.36 944.64 273.92 944.64 512 750.08 944.64 512 944.64z m0-814.08C302.08 130.56 130.56 302.08 130.56 512S302.08 893.44 512 893.44 893.44 721.92 893.44 512 721.92 130.56 512 130.56z" fill="#0F41F5" p-id="52603"></path></svg>